<svg width="16" height="16" viewBox="0 0 16 16" fill="none" xmlns="http://www.w3.org/2000/svg">
<path fill-rule="evenodd" clip-rule="evenodd" d="M8 16C12.4183 16 16 12.4183 16 8C16 3.58172 12.4183 0 8 0C3.58172 0 0 3.58172 0 8C0 12.4183 3.58172 16 8 16ZM8.00002 14.9508C11.8389 14.9508 14.9508 11.8389 14.9508 8.00002C14.9508 4.16119 11.8389 1.0492 8.00002 1.0492C4.16119 1.0492 1.0492 4.16119 1.0492 8.00002C1.0492 11.8389 4.16119 14.9508 8.00002 14.9508Z" fill="black"/>
<path fill-rule="evenodd" clip-rule="evenodd" d="M7.73777 2.88523C7.37562 2.88523 7.08203 3.17881 7.08203 3.54097V7.99999C7.08203 8.2716 7.24717 8.50464 7.48253 8.60419C7.49172 8.60808 7.50102 8.61177 7.51043 8.61524C7.58128 8.64144 7.6579 8.65576 7.73786 8.65576H12.1969C12.559 8.65576 12.8526 8.36218 12.8526 8.00002C12.8526 7.63787 12.559 7.34429 12.1969 7.34429H8.39351V3.54097C8.39351 3.17881 8.09992 2.88523 7.73777 2.88523Z" fill="black"/>
</svg>
